<svg xmlns="http://www.w3.org/2000/svg" width="168" height="47.931" viewBox="0 0 168 47.931">
    <defs>
        <clipPath id="prefix__clip-path">
            <path d="M0 0H168V47.931H0z" style="fill:none"/>
        </clipPath>
        <style>
            .prefix__cls-4{fill:#fff}
        </style>
    </defs>
    <g id="prefix__Button_Social_App_Store" data-name="Button / Social / App Store">
        <g id="prefix__Button_Social_App_Store-2" data-name="Button / Social / App Store">
            <path id="prefix__Button" d="M168 43.127a4.819 4.819 0 0 1-4.838 4.8H4.844A4.825 4.825 0 0 1 0 43.127V4.811A4.831 4.831 0 0 1 4.844 0h158.317A4.824 4.824 0 0 1 168 4.811v38.316z" style="fill:#1a82ff;stroke:#707070;stroke-miterlimit:10;stroke-width:1.5px"/>
            <g id="prefix__Group" transform="translate(13.111 10.491)">
                <path id="prefix__Shape" d="M16.559 7.019A5.485 5.485 0 0 1 19.2 2.413 5.688 5.688 0 0 0 14.73.02c-1.879-.2-3.7 1.114-4.658 1.114-.976 0-2.45-1.1-4.038-1.063A5.954 5.954 0 0 0 1.028 3.1c-2.165 3.711-.55 9.17 1.523 12.172 1.037 1.47 2.249 3.112 3.836 3.054 1.552-.063 2.132-.981 4.005-.981 1.856 0 2.4.981 4.018.944 1.666-.027 2.715-1.477 3.716-2.961a12.1 12.1 0 0 0 1.7-3.43 5.313 5.313 0 0 1-3.267-4.88z" class="prefix__cls-4" transform="translate(.457 6.29)"/>
                <path id="prefix__Shape-2" d="M3.65 3.871A5.371 5.371 0 0 0 4.9 0a5.568 5.568 0 0 0-3.59 1.841A5.113 5.113 0 0 0 .028 5.569a4.6 4.6 0 0 0 3.622-1.7z" class="prefix__cls-4" data-name="Shape" transform="translate(10.016 .555)"/>
            </g>
            <g id="prefix__Group-2" data-name="Group" transform="translate(61 22)">
                <path id="prefix__Shape-3" d="M2.233 13.592H0L4.326 0H7l4.347 13.59H9.053L7.8 9.6H3.43l-1.2 3.992zM5.564 1.814c-.128.562-.337 1.4-.638 2.561L3.81 7.924h3.608L6.282 4.375c-.118-.356-.34-1.194-.678-2.561z" class="prefix__cls-4" data-name="Shape" transform="translate(.414 .2)"/>
                <path id="prefix__Shape-4" d="M2.233 13.994H.08V3.427C.08 2.409.053 1.324 0 .2h1.894l.12 1.553h.041A3.594 3.594 0 0 1 5.324 0a3.594 3.594 0 0 1 2.862 1.371 5.467 5.467 0 0 1 1.147 3.61A5.629 5.629 0 0 1 8 8.932a3.9 3.9 0 0 1-2.971 1.292 2.972 2.972 0 0 1-2.756-1.392h-.04v5.161zM4.626 1.733a2.228 2.228 0 0 0-1.444.534 2.491 2.491 0 0 0-.848 1.4 2.867 2.867 0 0 0-.1.664v1.636a2.647 2.647 0 0 0 .649 1.806 2.148 2.148 0 0 0 1.684.736 2.2 2.2 0 0 0 1.893-.947 4.226 4.226 0 0 0 .679-2.5A4.088 4.088 0 0 0 6.5 2.7a2.205 2.205 0 0 0-1.874-.967z" class="prefix__cls-4" data-name="Shape" transform="translate(13.554 3.79)"/>
                <path id="prefix__Shape-5" d="M2.233 13.994H.08V3.427C.08 2.409.053 1.324 0 .2h1.894l.12 1.553h.041A3.592 3.592 0 0 1 5.324 0a3.6 3.6 0 0 1 2.862 1.371 5.48 5.48 0 0 1 1.145 3.61 5.628 5.628 0 0 1-1.336 3.951 3.9 3.9 0 0 1-2.97 1.292 2.97 2.97 0 0 1-2.752-1.392h-.04v5.161zM4.625 1.733a2.238 2.238 0 0 0-1.446.534 2.494 2.494 0 0 0-.846 1.4 2.924 2.924 0 0 0-.1.664v1.636a2.657 2.657 0 0 0 .646 1.806 2.153 2.153 0 0 0 1.687.736 2.206 2.206 0 0 0 1.894-.948 4.226 4.226 0 0 0 .679-2.5A4.093 4.093 0 0 0 6.5 2.7a2.206 2.206 0 0 0-1.875-.967z" class="prefix__cls-4" data-name="Shape" transform="translate(24.701 3.79)"/>
                <path id="prefix__Shape-6" d="M8.338 9.979A3.641 3.641 0 0 1 7.144 12.8a5.253 5.253 0 0 1-3.661 1.19A6.352 6.352 0 0 1 0 13.145l.5-1.815a5.853 5.853 0 0 0 3.113.868 2.92 2.92 0 0 0 1.9-.556 1.822 1.822 0 0 0 .677-1.485 1.9 1.9 0 0 0-.558-1.393 5.178 5.178 0 0 0-1.861-1.05Q.241 6.382.242 3.816A3.465 3.465 0 0 1 1.48 1.07 4.842 4.842 0 0 1 4.77 0a6.462 6.462 0 0 1 3.05.645L7.281 2.42a5.244 5.244 0 0 0-2.572-.62 2.585 2.585 0 0 0-1.773.565A1.622 1.622 0 0 0 2.4 3.591a1.669 1.669 0 0 0 .617 1.331A6.95 6.95 0 0 0 4.97 5.97a6.627 6.627 0 0 1 2.552 1.653 3.476 3.476 0 0 1 .816 2.356z" class="prefix__cls-4" data-name="Shape" transform="translate(38.157 .001)"/>
                <path id="prefix__Shape-7" d="M5.9 4.076H3.529v4.758q0 1.815 1.256 1.815a3.789 3.789 0 0 0 .956-.1L5.8 12.2a4.828 4.828 0 0 1-1.674.241 2.569 2.569 0 0 1-1.995-.786 3.894 3.894 0 0 1-.718-2.642V4.074H0V2.44h1.414V.645L3.529 0v2.44H5.9v1.636z" class="prefix__cls-4" data-name="Shape" transform="translate(47.712 1.549)"/>
                <path id="prefix__Shape-8" d="M4.665 10.222a4.329 4.329 0 0 1-3.4-1.431A5.268 5.268 0 0 1 0 5.182a5.382 5.382 0 0 1 1.306-3.73A4.511 4.511 0 0 1 4.824 0a4.419 4.419 0 0 1 3.43 1.432 5.209 5.209 0 0 1 1.238 3.587A5.438 5.438 0 0 1 8.215 8.73a4.552 4.552 0 0 1-3.55 1.492zm.083-8.63a2.166 2.166 0 0 0-1.975 1.173A4.562 4.562 0 0 0 2.2 5.131a4.472 4.472 0 0 0 .578 2.325 2.18 2.18 0 0 0 1.951 1.171 2.157 2.157 0 0 0 1.932-1.192 4.477 4.477 0 0 0 .6-2.345 4.466 4.466 0 0 0-.578-2.326 2.133 2.133 0 0 0-1.936-1.172z" class="prefix__cls-4" data-name="Shape" transform="translate(54.83 3.791)"/>
                <path id="prefix__Shape-9" d="M5.185 2.116a3.7 3.7 0 0 0-.679-.06 2.027 2.027 0 0 0-1.755.868 3.29 3.29 0 0 0-.538 1.935V10H.061l.02-6.714Q.081 1.593 0 .2h1.875l.079 1.875h.06A3.351 3.351 0 0 1 3.09.525 2.584 2.584 0 0 1 4.647 0a3.419 3.419 0 0 1 .538.04v2.076z" class="prefix__cls-4" data-name="Shape" transform="translate(66.135 3.79)"/>
                <path id="prefix__Shape-10" d="M4.827 10.2a4.7 4.7 0 0 1-3.542-1.339A5.008 5.008 0 0 1 0 5.261a5.68 5.68 0 0 1 1.2-3.69A4.125 4.125 0 0 1 4.586 0a3.613 3.613 0 0 1 3.172 1.571 5.364 5.364 0 0 1 .854 3.084 5.175 5.175 0 0 1-.078.988H2.075a2.869 2.869 0 0 0 .937 2.219 3.189 3.189 0 0 0 2.113.686 7.116 7.116 0 0 0 2.614-.464L8.075 9.6a8.037 8.037 0 0 1-3.248.6zm-.4-8.692a2.043 2.043 0 0 0-1.715.892 3.287 3.287 0 0 0-.637 1.69h4.484a3 3 0 0 0-.418-1.673 1.883 1.883 0 0 0-1.716-.908z" class="prefix__cls-4" data-name="Shape" transform="translate(72.337 3.772)"/>
            </g>
            <g id="prefix__Group-3" data-name="Group" transform="translate(62 9)" style="opacity:.4">
                <path id="prefix__Shape-11" d="M1.541 6.636A13.06 13.06 0 0 1 0 6.557V.136A11.485 11.485 0 0 1 1.814 0a3.945 3.945 0 0 1 2.6.746A3.016 3.016 0 0 1 5.4 3.158a3.285 3.285 0 0 1-1.063 2.655 4.265 4.265 0 0 1-2.796.823zM1.9.824a4.5 4.5 0 0 0-.848.068v4.881a5.639 5.639 0 0 0 .712.029 2.511 2.511 0 0 0 1.866-.668 2.675 2.675 0 0 0 .659-1.947 2.391 2.391 0 0 0-.608-1.754A2.422 2.422 0 0 0 1.9.824z" class="prefix__cls-4" data-name="Shape" transform="translate(.679 .845)"/>
                <path id="prefix__Shape-12" d="M2.28 4.91a2.134 2.134 0 0 1-1.662-.688A2.5 2.5 0 0 1 0 2.488 2.559 2.559 0 0 1 .638.7a2.231 2.231 0 0 1 1.72-.7 2.184 2.184 0 0 1 1.678.687 2.484 2.484 0 0 1 .6 1.723 2.586 2.586 0 0 1-.624 1.783 2.248 2.248 0 0 1-1.732.717zM2.32.764a1.062 1.062 0 0 0-.966.563 2.156 2.156 0 0 0-.283 1.136 2.127 2.127 0 0 0 .283 1.118 1.071 1.071 0 0 0 .956.563 1.054 1.054 0 0 0 .944-.573 2.114 2.114 0 0 0 .293-1.127 2.133 2.133 0 0 0-.282-1.117A1.046 1.046 0 0 0 2.32.764z" class="prefix__cls-4" data-name="Shape" transform="translate(7.327 2.619)"/>
                <path id="prefix__Shape-13" d="M6.863 0L5.381 4.707h-.965L3.8 2.663a15.22 15.22 0 0 1-.381-1.521H3.4a11.077 11.077 0 0 1-.381 1.521l-.65 2.044h-.975L0 0h1.082l.536 2.238q.194.794.322 1.511h.019q.118-.59.391-1.5L3.022 0h.858l.644 2.2q.234.8.38 1.55h.029a14.726 14.726 0 0 1 .321-1.55L5.829 0h1.034z" class="prefix__cls-4" data-name="Shape" transform="translate(12.998 2.715)"/>
                <path id="prefix__Shape-14" d="M4.152 4.806H3.1V2.11Q3.1.864 2.144.864a.953.953 0 0 0-.761.343 1.211 1.211 0 0 0-.292.807v2.791H.038V1.444Q.038.824 0 .1h.925l.05.733H1a1.516 1.516 0 0 1 .549-.568A1.788 1.788 0 0 1 2.5 0a1.517 1.517 0 0 1 1.1.426 2.064 2.064 0 0 1 .546 1.56v2.82z" class="prefix__cls-4" data-name="Shape" transform="translate(21.168 2.616)"/>
                <path id="prefix__Shape-15" d="M1.052 6.867H0V0h1.052v6.867z" class="prefix__cls-4" data-name="Shape" transform="translate(27.173 .555)"/>
                <path id="prefix__Shape-16" d="M2.28 4.91a2.129 2.129 0 0 1-1.662-.688A2.5 2.5 0 0 1 0 2.488 2.559 2.559 0 0 1 .638.7 2.23 2.23 0 0 1 2.357 0a2.188 2.188 0 0 1 1.679.687 2.484 2.484 0 0 1 .6 1.723 2.586 2.586 0 0 1-.624 1.783 2.248 2.248 0 0 1-1.732.717zM2.32.764a1.06 1.06 0 0 0-.966.563 2.156 2.156 0 0 0-.283 1.136 2.127 2.127 0 0 0 .283 1.118 1.071 1.071 0 0 0 .956.563 1.054 1.054 0 0 0 .943-.573 2.107 2.107 0 0 0 .293-1.127 2.125 2.125 0 0 0-.283-1.117A1.04 1.04 0 0 0 2.32.764z" class="prefix__cls-4" data-name="Shape" transform="translate(29.785 2.619)"/>
                <path id="prefix__Shape-17" d="M1.452 4.91a1.437 1.437 0 0 1-1.081-.426A1.335 1.335 0 0 1 0 3.525a1.468 1.468 0 0 1 .726-1.317 3.763 3.763 0 0 1 1.99-.446h.053v-.087c0-.617-.331-.93-.984-.93a2.223 2.223 0 0 0-1.235.348L.337.407A3.057 3.057 0 0 1 1.961 0c1.234 0 1.86.655 1.86 1.948v1.733A7.364 7.364 0 0 0 3.889 4.8h-.946l-.078-.543h-.029a1.633 1.633 0 0 1-1.384.653zm1.242-2.451c-1.089 0-1.641.319-1.641.949a.708.708 0 0 0 .2.552.736.736 0 0 0 .514.184 1.07 1.07 0 0 0 .644-.218.891.891 0 0 0 .389-.741V2.46z" class="prefix__cls-4" data-name="Shape" transform="translate(35.632 2.619)"/>
                <path id="prefix__Shape-18" d="M1.987 6.974a1.8 1.8 0 0 1-1.423-.668A2.606 2.606 0 0 1 0 4.573a2.73 2.73 0 0 1 .614-1.85 1.9 1.9 0 0 1 1.463-.66A1.428 1.428 0 0 1 3.41 2.7h.021V0h1.054v5.6c0 .465.012.892.037 1.268h-.935l-.049-.756h-.029a1.583 1.583 0 0 1-1.522.862zm.329-4.1a1.089 1.089 0 0 0-.927.465 1.993 1.993 0 0 0-.337 1.191 1.857 1.857 0 0 0 .324 1.134 1.089 1.089 0 0 0 .92.464 1.026 1.026 0 0 0 .832-.387 1.293 1.293 0 0 0 .3-.862V4.1a1.486 1.486 0 0 0-.03-.329 1.183 1.183 0 0 0-.381-.634 1.037 1.037 0 0 0-.7-.26z" class="prefix__cls-4" data-name="Shape" transform="translate(40.983 .555)"/>
                <path id="prefix__Shape-19" d="M2.28 4.91a2.136 2.136 0 0 1-1.662-.688A2.5 2.5 0 0 1 0 2.488 2.559 2.559 0 0 1 .638.7 2.233 2.233 0 0 1 2.36 0a2.179 2.179 0 0 1 1.676.687 2.484 2.484 0 0 1 .6 1.723 2.586 2.586 0 0 1-.624 1.783 2.248 2.248 0 0 1-1.732.717zM2.32.764a1.064 1.064 0 0 0-.966.563 2.156 2.156 0 0 0-.283 1.136 2.127 2.127 0 0 0 .283 1.118 1.071 1.071 0 0 0 .956.563 1.058 1.058 0 0 0 .946-.573 2.129 2.129 0 0 0 .292-1.127 2.133 2.133 0 0 0-.282-1.117A1.036 1.036 0 0 0 2.32.764z" class="prefix__cls-4" data-name="Shape" transform="translate(49.872 2.619)"/>
                <path id="prefix__Shape-20" d="M4.151 4.806H3.1V2.11Q3.1.864 2.143.864a.949.949 0 0 0-.76.343 1.206 1.206 0 0 0-.292.807v2.791H.037V1.444Q.037.824 0 .1h.924l.05.733H1a1.532 1.532 0 0 1 .548-.568A1.792 1.792 0 0 1 2.5 0a1.516 1.516 0 0 1 1.1.426 2.06 2.06 0 0 1 .546 1.56v2.82z" class="prefix__cls-4" data-name="Shape" transform="translate(56.023 2.616)"/>
                <path id="prefix__Shape-21" d="M2.885 1.956h-1.16v2.287c0 .581.206.872.614.872a1.866 1.866 0 0 0 .469-.049l.027.794a2.38 2.38 0 0 1-.818.117 1.263 1.263 0 0 1-.973-.377 1.838 1.838 0 0 1-.352-1.27V1.956H0v-.784h.692V.31L1.724 0v1.171h1.16v.785z" class="prefix__cls-4" data-name="Shape" transform="translate(64.377 1.543)"/>
                <path id="prefix__Shape-22" d="M4.114 6.867H3.06V4.191q0-1.266-.954-1.266a1 1 0 0 0-1 .734 1.307 1.307 0 0 0-.049.376v2.831H0V0h1.052v2.837h.02A1.594 1.594 0 0 1 2.5 2.063a1.472 1.472 0 0 1 1.083.426 2.136 2.136 0 0 1 .536 1.579v2.8z" class="prefix__cls-4" data-name="Shape" transform="translate(68.723 .555)"/>
                <path id="prefix__Shape-23" d="M2.357 4.9a2.31 2.31 0 0 1-1.729-.644A2.375 2.375 0 0 1 0 2.527 2.69 2.69 0 0 1 .585.755 2.028 2.028 0 0 1 2.241 0a1.77 1.77 0 0 1 1.548.755 2.511 2.511 0 0 1 .422 1.48 2.518 2.518 0 0 1-.039.474H1.014a1.375 1.375 0 0 0 .457 1.066A1.581 1.581 0 0 0 2.5 4.1a3.536 3.536 0 0 0 1.278-.222l.165.727a4.016 4.016 0 0 1-1.586.295zM2.164.725a1 1 0 0 0-.838.426 1.592 1.592 0 0 0-.312.814h2.193a1.408 1.408 0 0 0-.2-.8.926.926 0 0 0-.843-.44z" class="prefix__cls-4" data-name="Shape" transform="translate(74.376 2.61)"/>
            </g>
        </g>
    </g>
</svg>
