<svg xmlns="http://www.w3.org/2000/svg" width="19" height="11.875" viewBox="0 0 19 11.875">
    <path id="prefix__Behance" d="M14.771 11.875a4.778 4.778 0 0 1-3.057-1.054 4.131 4.131 0 0 1-1.327-3.428 4.627 4.627 0 0 1 1.2-3.416 4.242 4.242 0 0 1 3.1-1.188 5.015 5.015 0 0 1 2.042.4 3.518 3.518 0 0 1 1.5 1.267 4.157 4.157 0 0 1 .693 1.771A10.709 10.709 0 0 1 19 7.931h-6.328a2.059 2.059 0 0 0 .909 1.806 2.334 2.334 0 0 0 1.252.322 1.95 1.95 0 0 0 1.259-.392 1.885 1.885 0 0 0 .468-.589h2.318a2.811 2.811 0 0 1-.841 1.548 4.268 4.268 0 0 1-3.266 1.249zm-.083-7.237a1.819 1.819 0 0 0-1.354.49 2.328 2.328 0 0 0-.607 1.325h3.914a1.878 1.878 0 0 0-.6-1.354 2.024 2.024 0 0 0-1.353-.461zm-9.4 6.945H0V0h5.675a3.641 3.641 0 0 1 3.042 1.235A2.932 2.932 0 0 1 9.256 3a2.562 2.562 0 0 1-.544 1.706 2.8 2.8 0 0 1-.9.659A2.653 2.653 0 0 1 9.174 6.39a3.05 3.05 0 0 1 .457 1.7 3.356 3.356 0 0 1-.525 1.847 3.233 3.233 0 0 1-.831.912 3.27 3.27 0 0 1-1.326.581 8.229 8.229 0 0 1-1.658.153zm-2.95-5.1v3.089h2.85a2.832 2.832 0 0 0 1.19-.2 1.465 1.465 0 0 0 .772-1.446 1.249 1.249 0 0 0-.744-1.246 3.008 3.008 0 0 0-1.174-.2zm0-4.472v2.557H5.2a2.407 2.407 0 0 0 1.238-.288 1.094 1.094 0 0 0 .478-1.016 1.043 1.043 0 0 0-.631-1.071A4.52 4.52 0 0 0 4.9 2.012zm14.831-.031h-5.028V.54h5.031v1.44z" style="fill:#61687a"/>
</svg>
