<svg xmlns="http://www.w3.org/2000/svg" width="15.912" height="15.912" viewBox="0 0 15.912 15.912">
    <path id="prefix__Combined_Shape" d="M11.521 15.912h-7.13A4.4 4.4 0 0 1 0 11.521v-7.13A4.4 4.4 0 0 1 4.391 0h7.13a4.4 4.4 0 0 1 4.391 4.391v7.13a4.4 4.4 0 0 1-4.391 4.391zm-7.13-14.5a2.982 2.982 0 0 0-2.979 2.979v7.13A2.982 2.982 0 0 0 4.391 14.5h7.13a2.982 2.982 0 0 0 2.979-2.979v-7.13a2.982 2.982 0 0 0-2.979-2.979zm3.565 10.644a4.1 4.1 0 1 1 4.1-4.1 4.1 4.1 0 0 1-4.1 4.1zm4.272-7.326a1.036 1.036 0 1 1 .732-.3 1.039 1.039 0 0 1-.732.3z" data-name="Combined Shape" style="fill:#61687a"/>
</svg>
