<svg xmlns="http://www.w3.org/2000/svg" width="22" height="22" viewBox="0 0 22 22">
    <g id="prefix__Combined_Shape" data-name="Combined Shape" transform="translate(-189 -17)" style="opacity:.2">
        <path id="prefix__Combined_Shape-2" d="M11 22A11 11 0 0 1 3.222 3.222a11 11 0 1 1 15.556 15.556A10.928 10.928 0 0 1 11 22zM9.5 6.5L8.44 7.56 11.88 11l-3.44 3.44L9.5 15.5 14 11 9.5 6.5z" data-name="Combined Shape" transform="translate(189 17)" style="fill:#03101f"/>
        <path id="prefix__Combined_Shape-3" d="M11 22A11 11 0 0 1 3.222 3.222a11 11 0 1 1 15.556 15.556A10.928 10.928 0 0 1 11 22zM9.5 6.5L8.44 7.56 11.88 11l-3.44 3.44L9.5 15.5 14 11 9.5 6.5z" data-name="Combined Shape" transform="translate(189 17)" style="fill:none"/>
    </g>
</svg>
