<svg xmlns="http://www.w3.org/2000/svg" width="25.28" height="38.998" viewBox="0 0 25.28 38.998">
    <defs>
        <clipPath id="prefix__clip-path">
            <path d="M0 0H25.28V38.998H0z" style="fill:none"/>
        </clipPath>
        <style>
            .prefix__cls-3{fill:none;stroke:#75fed0;stroke-miterlimit:10}
        </style>
    </defs>
    <g id="prefix__Icon_Illustration_Green_Flask" data-name="Icon / Illustration / Green / Flask">
        <g id="prefix__Icon_Illustration_Green_Flask-2" data-name="Icon / Illustration / Green / Flask" transform="translate(-.834)">
            <g id="prefix__Layer_1">
                <rect id="prefix__Rectangle-path" width="16.031" height="3.391" class="prefix__cls-3" rx="1.696" transform="translate(5.063)"/>
                <path id="prefix__Shape" d="M16.848 0c5.493 2.409 9.432 9.054 8.207 14.95a12.644 12.644 0 0 1-24.779 0C-.948 9.054 1.97 2.43 7.463.021" class="prefix__cls-3" transform="translate(.834 13.929)"/>
                <path id="prefix__Shape-2" d="M0 11.022V0" class="prefix__cls-3" data-name="Shape" transform="translate(8 3.391)"/>
                <path id="prefix__Shape-3" d="M0 11.022V0" class="prefix__cls-3" data-name="Shape" transform="translate(18 3.391)"/>
                <path id="prefix__Shape-4" d="M0 4.6L5.982.592A3.5 3.5 0 0 1 9.357.3l4.674 2.086a3.5 3.5 0 0 0 2.354.178l8.083-2.2" class="prefix__cls-3" data-name="Shape" transform="translate(.844 21.681)"/>
                <ellipse id="prefix__Oval" cx="1.688" cy="1.696" class="prefix__cls-3" rx="1.688" ry="1.696" transform="translate(6.75 27.13)"/>
                <ellipse id="prefix__Oval-2" cx=".844" cy=".848" class="prefix__cls-3" data-name="Oval" rx=".844" ry=".848" transform="translate(18.563 27.978)"/>
                <ellipse id="prefix__Oval-3" cx="2.531" cy="2.543" class="prefix__cls-3" data-name="Oval" rx="2.531" ry="2.543" transform="translate(10.969 14.413)"/>
            </g>
        </g>
    </g>
</svg>
