<svg xmlns="http://www.w3.org/2000/svg" width="161.117" height="47.723" viewBox="0 0 161.117 47.723">
    <defs>
        <clipPath id="prefix__clip-path">
            <path d="M0 0H161.117V47.723H0z" style="fill:none"/>
        </clipPath>
        <style>
            .prefix__cls-4,.prefix__cls-5{fill:#fffffe}.prefix__cls-5{opacity:.4}
        </style>
    </defs>
    <g id="prefix__Button_Social_Google_Play" data-name="Button / Social / Google Play">
        <g id="prefix__Button_Social_Google_Play-2" data-name="Button / Social / Google Play" transform="translate(0 -.114)">
            <path id="prefix__Fill_29" d="M6.522 0H154.6a6.541 6.541 0 0 1 6.522 6.522V41.2a6.541 6.541 0 0 1-6.522 6.522H6.522A6.541 6.541 0 0 1 0 41.2V6.522A6.541 6.541 0 0 1 6.522 0" data-name="Fill 29" transform="translate(0 .114)" style="fill:#1a82ff;stroke:#707070;stroke-miterlimit:10;stroke-width:1.5px"/>
            <path id="prefix__Fill_30" d="M13.59 6.4H7.14v1.915h4.575c-.226 2.685-2.459 3.828-4.567 3.828a5.03 5.03 0 0 1-5.05-5.1 5.039 5.039 0 0 1 5.056-5.124A4.965 4.965 0 0 1 10.6 3.3l1.34-1.388A6.814 6.814 0 0 0 7.085 0 7.147 7.147 0 0 0 0 7.013a7.124 7.124 0 0 0 7.187 7.048 6.191 6.191 0 0 0 6.52-6.392A5.74 5.74 0 0 0 13.59 6.4" class="prefix__cls-4" data-name="Fill 30" transform="translate(48.307 21.792)"/>
            <path id="prefix__Fill_31" d="M4.575 9.039a4.539 4.539 0 0 1-3.313-1.36A4.575 4.575 0 0 1 0 4.483 4.465 4.465 0 0 1 4.543 0a4.715 4.715 0 0 1 3.084 1.145 4.35 4.35 0 0 1 1.451 3.39 4.472 4.472 0 0 1-1.323 3.231 4.509 4.509 0 0 1-3.18 1.273zm-.006-7.264A2.605 2.605 0 0 0 1.984 4.51a2.613 2.613 0 0 0 2.58 2.755A2.616 2.616 0 0 0 7.1 4.523a2.82 2.82 0 0 0-.779-2.01 2.492 2.492 0 0 0-1.752-.738z" class="prefix__cls-4" data-name="Fill 31" transform="translate(62.837 26.806)"/>
            <path id="prefix__Fill_32" d="M4.575 9.039a4.539 4.539 0 0 1-3.313-1.36A4.575 4.575 0 0 1 0 4.483 4.465 4.465 0 0 1 4.543 0a4.715 4.715 0 0 1 3.084 1.145 4.35 4.35 0 0 1 1.451 3.39 4.473 4.473 0 0 1-1.323 3.231 4.509 4.509 0 0 1-3.18 1.273zm0-7.264A2.605 2.605 0 0 0 1.984 4.51a2.613 2.613 0 0 0 2.58 2.755A2.616 2.616 0 0 0 7.1 4.523a2.821 2.821 0 0 0-.779-2.01 2.491 2.491 0 0 0-1.751-.738z" class="prefix__cls-4" data-name="Fill 32" transform="translate(72.825 26.806)"/>
            <path id="prefix__Fill_33" d="M4.415 13.1a4.377 4.377 0 0 1-4.066-2.656l1.737-.726A2.5 2.5 0 0 0 4.4 11.326a2.26 2.26 0 0 0 2.376-2.493v-.891A3 3 0 0 1 4.3 9.041 4.27 4.27 0 0 1 1.367 7.8 4.532 4.532 0 0 1 0 4.516a4.654 4.654 0 0 1 1.259-3.154A4.2 4.2 0 0 1 4.339 0a3.2 3.2 0 0 1 2.437 1.038V.272h1.895v8.12a4.957 4.957 0 0 1-1.222 3.553A4.121 4.121 0 0 1 4.415 13.1zm.1-11.333a2.594 2.594 0 0 0-2.526 2.77 2.8 2.8 0 0 0 .764 1.987 2.418 2.418 0 0 0 1.736.735 2.375 2.375 0 0 0 1.678-.707A2.817 2.817 0 0 0 6.93 4.52a2.584 2.584 0 0 0-2.416-2.748z" class="prefix__cls-4" data-name="Fill 33" transform="translate(82.813 26.811)"/>
            <path id="prefix__Fill_34" d="M4.435 9.049a4.449 4.449 0 0 1-3.077-1.2A4.459 4.459 0 0 1 0 4.514 4.276 4.276 0 0 1 4.216 0a3.86 3.86 0 0 1 2.337.783 4.4 4.4 0 0 1 1.421 1.866l.315.737L2.228 5.9a2.342 2.342 0 0 0 2.217 1.37 2.512 2.512 0 0 0 2.214-1.244l1.563 1.039a4.554 4.554 0 0 1-3.787 1.984zm-.14-7.311a2.43 2.43 0 0 0-1.772.869 2.293 2.293 0 0 0-.6 1.788L5.967 2.7a1.8 1.8 0 0 0-1.672-.962z" class="prefix__cls-4" data-name="Fill 34" transform="translate(96.092 26.8)"/>
            <path id="prefix__Fill_35" d="M0 13.321h1.991V0H0z" class="prefix__cls-4" data-name="Fill 35" transform="translate(93.004 22.259)"/>
            <path id="prefix__Fill_36" d="M0 13.321h1.991V0H0z" class="prefix__cls-4" data-name="Fill 36" transform="translate(119.692 22.259)"/>
            <path id="prefix__Fill_37" d="M0 13.321h1.991V0H0z" class="prefix__cls-4" data-name="Fill 37" transform="translate(109.136 22.259)"/>
            <path id="prefix__Fill_38" d="M4.815 8.487H0V0h4.815a4.244 4.244 0 1 1 0 8.487zm-2.824-6.5V6.5h2.824a2.253 2.253 0 1 0 0-4.506z" class="prefix__cls-4" data-name="Fill 38" transform="translate(109.136 22.259)"/>
            <path id="prefix__Fill_39" d="M2.174 13.116L7.938 0H5.764L0 13.116h2.174" class="prefix__cls-4" data-name="Fill 39" transform="translate(134.205 26.8)"/>
            <path id="prefix__Fill_40" d="M4.444 10.113L0 0h2.174l3.065 6.975h-.8v3.138" class="prefix__cls-4" data-name="Fill 40" transform="translate(132.578 26.8)"/>
            <path id="prefix__Fill_41" d="M3.346 9.658a3.319 3.319 0 0 1-2.479-.969A3.313 3.313 0 0 1 .186 6.12a3.207 3.207 0 0 1 3.05-2.72c.175-.018.359-.027.548-.027a9.858 9.858 0 0 1 2.5.382 2.209 2.209 0 0 0-2.372-1.906A2.612 2.612 0 0 0 1.6 3.143L0 2.068A4.719 4.719 0 0 1 3.957 0a4.507 4.507 0 0 1 3.295 1.35 4.236 4.236 0 0 1 1.072 3.26V9.4H6.333V8.325A3.4 3.4 0 0 1 4.6 9.488a4.792 4.792 0 0 1-1.254.17zM4.061 5.1c-1.312 0-1.791.732-1.8 1.359a1.329 1.329 0 0 0 1.364 1.364 1.927 1.927 0 0 0 .5-.071 2.992 2.992 0 0 0 2.2-2.2 8.437 8.437 0 0 0-1.657-.4 4.152 4.152 0 0 0-.607-.052z" class="prefix__cls-4" data-name="Fill 41" transform="translate(123.496 26.18)"/>
            <path id="prefix__Fill_42" d="M5.949 2.731H3.125v.817h2a1.841 1.841 0 0 1-2 1.634 2.181 2.181 0 1 1 0-4.363 2.2 2.2 0 0 1 1.51.59l.593-.592A3.016 3.016 0 0 0 3.1 0 3.09 3.09 0 0 0 0 2.993 3.08 3.08 0 0 0 3.146 6 2.678 2.678 0 0 0 6 3.273a2.385 2.385 0 0 0-.051-.542" class="prefix__cls-5" data-name="Fill 42" transform="translate(49 11)"/>
            <path id="prefix__Fill_43" d="M0 6h1V0H0z" class="prefix__cls-5" data-name="Fill 43" transform="translate(67 11)"/>
            <path id="prefix__Fill_44" d="M1.533 6h.934V.9H4V0H0v.9h1.533V6" class="prefix__cls-5" data-name="Fill 44" transform="translate(60 11)"/>
            <path id="prefix__Fill_45" d="M0 6h3v-.9H.782V3.448h1.951v-.9H.782V.9H3V0H0v6" class="prefix__cls-5" data-name="Fill 45" transform="translate(56 11)"/>
            <path id="prefix__Fill_46" d="M1.533 6h.934V.9H4V0H0v.9h1.533V6" class="prefix__cls-5" data-name="Fill 46" transform="translate(69 11)"/>
            <path id="prefix__Fill_47" d="M3 6a3 3 0 0 1-2.17-.946A3.048 3.048 0 0 1 0 2.993 3.036 3.036 0 0 1 3 0a3.037 3.037 0 0 1 3 2.993 3.047 3.047 0 0 1-.829 2.062A3 3 0 0 1 3 6zM3 .819A2.147 2.147 0 0 0 .888 3.008 2.138 2.138 0 0 0 3 5.181a2.138 2.138 0 0 0 2.112-2.173A2.148 2.148 0 0 0 3 .819z" class="prefix__cls-5" data-name="Fill 47" transform="translate(75 11)"/>
            <path id="prefix__Fill_48" d="M0 6h.768V1.63L3.234 6H4V0h-.768v4.368L.768 0H0v6" class="prefix__cls-5" data-name="Fill 48" transform="translate(82 11)"/>
            <path id="prefix__Fill_49" d="M1.273 18.789L10.156 9.8l2.686 2.681-11.325 6.2a2.076 2.076 0 0 1-.244.108zm-.768 0a1.164 1.164 0 0 1-.419-1.024c0-.269-.009-1.745-.018-3.647V13.9l-.021-3.526V9.256L.031 7.429.025 6.057v-.023L.01 3.132C0 2.074 0 1.333 0 1.117A1.058 1.058 0 0 1 .457.112l9.311 9.3L.5 18.786zM13.342 12.2l-2.8-2.8 2.8-2.831 3.854 2.1c.361.2.545.427.545.683a.954.954 0 0 1-.545.736L13.343 12.2zm-3.19-3.183L1.121 0a1.171 1.171 0 0 1 .4.124L12.838 6.3l-2.684 2.718z" class="prefix__cls-4" data-name="Fill 49" transform="translate(13.263 15.152)"/>
        </g>
    </g>
</svg>
