<svg xmlns="http://www.w3.org/2000/svg" id="prefix__Logotype" width="93" height="34" viewBox="0 0 93 34">
    <defs>
        <style>
            .prefix__cls-2{fill:#fff}
        </style>
    </defs>
    <path id="prefix__Logotype_background" d="M0 0H93V34H0z" data-name="Logotype background" style="fill:transparent"/>
    <g id="prefix__boat-anchor-2" transform="translate(.065 5)">
        <g id="prefix__Capa_1">
            <path id="prefix__Shape" d="M10.5 23a9.049 9.049 0 0 1-8.6-5.8l-.044.09a.972.972 0 0 1-.875.551.951.951 0 0 1-.44-.107 1.009 1.009 0 0 1-.441-1.34l1.576-3.2L4.811 14.8a1.011 1.011 0 0 1 .434 1.342.972.972 0 0 1-.874.55.957.957 0 0 1-.44-.107l-.214-.11a7.027 7.027 0 0 0 5.76 4.442V10.509h-1.5a1 1 0 0 1 0-2h1.5V7.447a3.79 3.79 0 0 1-2.734-3.654 3.713 3.713 0 1 1 7.425 0 3.789 3.789 0 0 1-2.734 3.654V8.51h1.579a1 1 0 0 1 0 2h-1.579v10.424A7 7 0 0 0 17.3 16.4l-.367.188a.954.954 0 0 1-.439.107.972.972 0 0 1-.875-.55 1.011 1.011 0 0 1 .434-1.342l3.131-1.611 1.576 3.2a1.012 1.012 0 0 1-.434 1.342.939.939 0 0 1-.439.107.977.977 0 0 1-.847-.508A9.084 9.084 0 0 1 10.5 23zm-.04-21a1.794 1.794 0 1 0 1.756 1.794A1.777 1.777 0 0 0 10.455 2z" class="prefix__cls-2" transform="translate(.113)"/>
        </g>
    </g>
    <path id="prefix__Odessa" d="M5.968 12.384a6.309 6.309 0 0 1-2.41-.456 5.638 5.638 0 0 1-1.884-1.255A5.831 5.831 0 0 1 .445 8.784 6.235 6.235 0 0 1 0 6.432 6.238 6.238 0 0 1 .445 4.08a5.82 5.82 0 0 1 1.229-1.888A5.636 5.636 0 0 1 3.558.936 6.309 6.309 0 0 1 5.968.48a6.309 6.309 0 0 1 2.41.456 5.636 5.636 0 0 1 1.884 1.256 5.82 5.82 0 0 1 1.229 1.888 6.238 6.238 0 0 1 .445 2.353 6.235 6.235 0 0 1-.445 2.352 5.831 5.831 0 0 1-1.229 1.888 5.638 5.638 0 0 1-1.884 1.255 6.309 6.309 0 0 1-2.41.456zm0-10.464A4.181 4.181 0 0 0 2.83 3.248a4.252 4.252 0 0 0-.873 1.432 5.144 5.144 0 0 0 0 3.5 4.171 4.171 0 0 0 2.232 2.4 4.323 4.323 0 0 0 1.78.36 4.181 4.181 0 0 0 3.137-1.324 4.269 4.269 0 0 0 .873-1.432 5.144 5.144 0 0 0 0-3.5 4.252 4.252 0 0 0-.873-1.432A4.181 4.181 0 0 0 5.968 1.92zm44.358 10.368a3.567 3.567 0 0 1-1.019-.144 2.486 2.486 0 0 1-.85-.432 2.077 2.077 0 0 1-.574-.712 2.2 2.2 0 0 1-.21-.984A2.175 2.175 0 0 1 48 8.784a2.527 2.527 0 0 1 .906-.808 4.451 4.451 0 0 1 1.343-.448 9.54 9.54 0 0 1 1.641-.136h1.067v-.32a1.58 1.58 0 0 0-.452-1.1 1.63 1.63 0 0 0-.567-.368 2.182 2.182 0 0 0-.809-.136 3.032 3.032 0 0 0-.735.08 3.251 3.251 0 0 0-.575.2 2.55 2.55 0 0 0-.469.28c-.125.1-.258.195-.4.3l-.873-.9A4.1 4.1 0 0 1 49.5 4.6a4.951 4.951 0 0 1 1.618-.28 4.512 4.512 0 0 1 1.447.208 2.836 2.836 0 0 1 .994.56 2.209 2.209 0 0 1 .574.808 2.5 2.5 0 0 1 .187.952v3.872c0 .253.005.5.015.736s.028.441.049.64h-1.293c-.033-.389-.049-.777-.049-1.152h-.032a2.8 2.8 0 0 1-1.149 1.04 3.66 3.66 0 0 1-1.535.304zm1.86-3.839a10.218 10.218 0 0 0-1.059.056 4.159 4.159 0 0 0-.987.216 1.907 1.907 0 0 0-.728.448 1.01 1.01 0 0 0-.283.735 1.043 1.043 0 0 0 .445.944 2.2 2.2 0 0 0 1.2.288 2.37 2.37 0 0 0 1.019-.2 1.925 1.925 0 0 0 .68-.52 2.009 2.009 0 0 0 .372-.712 2.794 2.794 0 0 0 .113-.776v-.48zm-9.211 3.839A4.506 4.506 0 0 1 41.3 12a3.007 3.007 0 0 1-1.286-1.056l1.1-.9a4.565 4.565 0 0 0 .792.625 2 2 0 0 0 1.068.272 2.953 2.953 0 0 0 .558-.056 1.747 1.747 0 0 0 .5-.176 1.092 1.092 0 0 0 .356-.3.691.691 0 0 0 .137-.424.729.729 0 0 0-.2-.527 1.475 1.475 0 0 0-.485-.328 3.577 3.577 0 0 0-.6-.192c-.2-.045-.38-.084-.558-.12-.317-.076-.617-.163-.89-.257a2.748 2.748 0 0 1-.744-.384 1.784 1.784 0 0 1-.518-.608 1.961 1.961 0 0 1-.194-.912 2.074 2.074 0 0 1 .25-1.032 2.222 2.222 0 0 1 .663-.728 3.038 3.038 0 0 1 .938-.432 4.026 4.026 0 0 1 1.06-.144 3.959 3.959 0 0 1 1.487.288 2.359 2.359 0 0 1 1.133.96l-1.133.848a2.213 2.213 0 0 0-.634-.537 1.865 1.865 0 0 0-.93-.216 1.8 1.8 0 0 0-.9.216.693.693 0 0 0-.38.633.719.719 0 0 0 .218.544 1.733 1.733 0 0 0 .518.336 3.136 3.136 0 0 0 .64.193l.582.112a6.921 6.921 0 0 1 .881.272 2.462 2.462 0 0 1 .712.417 1.8 1.8 0 0 1 .469.624 2.128 2.128 0 0 1 .17.9A2.106 2.106 0 0 1 45.8 11a2.315 2.315 0 0 1-.712.744 3.024 3.024 0 0 1-.994.416 5.053 5.053 0 0 1-1.12.128zm-7.384 0A4.513 4.513 0 0 1 33.917 12a3.012 3.012 0 0 1-1.286-1.056l1.1-.9a4.565 4.565 0 0 0 .792.625 2 2 0 0 0 1.067.272 2.954 2.954 0 0 0 .558-.056 1.767 1.767 0 0 0 .5-.176 1.087 1.087 0 0 0 .357-.3.7.7 0 0 0 .137-.424.726.726 0 0 0-.2-.527 1.474 1.474 0 0 0-.485-.328 3.516 3.516 0 0 0-.6-.192c-.239-.054-.411-.091-.558-.12-.316-.076-.616-.163-.89-.257a2.744 2.744 0 0 1-.744-.384 1.764 1.764 0 0 1-.517-.608 1.94 1.94 0 0 1-.195-.912 2.056 2.056 0 0 1 .251-1.032 2.2 2.2 0 0 1 .663-.728 3.039 3.039 0 0 1 .938-.432 4.023 4.023 0 0 1 1.059-.144 3.975 3.975 0 0 1 1.488.288 2.358 2.358 0 0 1 1.132.96l-1.132.848a2.247 2.247 0 0 0-.639-.536 1.872 1.872 0 0 0-.931-.216 1.8 1.8 0 0 0-.9.216.691.691 0 0 0-.38.633.719.719 0 0 0 .218.544 1.73 1.73 0 0 0 .518.336 3.1 3.1 0 0 0 .639.193l.219.041.072.014.083.016.109.021.073.014.026.005a6.909 6.909 0 0 1 .882.272 2.51 2.51 0 0 1 .711.417 1.806 1.806 0 0 1 .469.624 2.16 2.16 0 0 1 .169.9 2.1 2.1 0 0 1-.275 1.1 2.3 2.3 0 0 1-.711.744 3.039 3.039 0 0 1-.994.416 5.069 5.069 0 0 1-1.119.117zm-8.014 0a4.252 4.252 0 0 1-1.641-.3 3.593 3.593 0 0 1-1.245-.841 3.718 3.718 0 0 1-.784-1.264A4.43 4.43 0 0 1 23.63 8.3a4.156 4.156 0 0 1 .3-1.576 3.909 3.909 0 0 1 .825-1.265 3.779 3.779 0 0 1 1.254-.84 4.119 4.119 0 0 1 1.585-.3 3.86 3.86 0 0 1 1.722.352 3.419 3.419 0 0 1 1.156.92 3.56 3.56 0 0 1 .655 1.281 5.3 5.3 0 0 1 .2 1.447v.512h-6.144a1.869 1.869 0 0 0 .218.9 2.254 2.254 0 0 0 .574.7 2.692 2.692 0 0 0 .825.448 3 3 0 0 0 .97.16 2.2 2.2 0 0 0 1.181-.312 3.8 3.8 0 0 0 .923-.824l1.1.833a4.08 4.08 0 0 1-3.398 1.552zm-.017-6.816A2.377 2.377 0 0 0 25.353 6.9a1.941 1.941 0 0 0-.17.776h4.593a3.016 3.016 0 0 0-.154-.879 1.951 1.951 0 0 0-.412-.7 1.919 1.919 0 0 0-.688-.464 2.543 2.543 0 0 0-.962-.161zm-10.036 6.816a4.082 4.082 0 0 1-1.609-.3 3.591 3.591 0 0 1-1.229-.849 3.849 3.849 0 0 1-.786-1.267 4.434 4.434 0 0 1-.273-1.572 4.5 4.5 0 0 1 .273-1.572 3.726 3.726 0 0 1 .784-1.265 3.639 3.639 0 0 1 1.229-.84 4.165 4.165 0 0 1 1.609-.3 3.644 3.644 0 0 1 1.553.344 2.674 2.674 0 0 1 1.116.936h.032V0h1.456v12.1h-1.454v-1.092h-.032a2.8 2.8 0 0 1-1.157.944 3.576 3.576 0 0 1-1.512.336zm.176-6.624a2.659 2.659 0 0 0-1.052.2 2.33 2.33 0 0 0-.792.544 2.4 2.4 0 0 0-.5.832 3.265 3.265 0 0 0 0 2.128 2.394 2.394 0 0 0 .5.832 2.331 2.331 0 0 0 .792.544 2.865 2.865 0 0 0 2.1 0 2.323 2.323 0 0 0 .792-.544 2.411 2.411 0 0 0 .5-.832 3.281 3.281 0 0 0 0-2.128 2.416 2.416 0 0 0-.5-.832 2.3 2.3 0 0 0-.792-.544 2.65 2.65 0 0 0-1.048-.2z" class="prefix__cls-2" transform="translate(38.162 11.904)"/>
</svg>
