<svg xmlns="http://www.w3.org/2000/svg" width="26.612" height="39" viewBox="0 0 26.612 39">
    <defs>
        <clipPath id="prefix__clip-path">
            <path d="M0 0H26.612V39H0z" style="fill:none"/>
        </clipPath>
        <style>
            .prefix__cls-3{fill:none;stroke:#75fed0;stroke-miterlimit:10}
        </style>
    </defs>
    <g id="prefix__Icon_Illustration_Green_Pens_" data-name="Icon / Illustration / Green / Pens">
        <g id="prefix__Icon_Illustration_Green_Pens_2" data-name="Icon / Illustration / Green / Pens" transform="translate(-.388)">
            <g id="prefix__Layer_1">
                <path id="prefix__Shape" d="M.844 0H19.87a1.226 1.226 0 0 1 1.223 1.229V21.2a3.383 3.383 0 0 1-3.375 3.391H3a3 3 0 0 1-3-3.01V.848A.846.846 0 0 1 .844 0z" class="prefix__cls-3" transform="translate(.844 14.413)"/>
                <path id="prefix__Shape-2" d="M0 11.022h3c.928 0 2.067-.763 2.067-1.7V1.7C5.063.763 3.923 0 3 0H0" class="prefix__cls-3" data-name="Shape" transform="translate(21.938 17.804)"/>
                <path id="prefix__Shape-3" d="M0 14.413V0h6.75v14.413" class="prefix__cls-3" data-name="Shape" transform="translate(6.75)"/>
                <path id="prefix__Shape-4" d="M0 0h2.531" class="prefix__cls-3" data-name="Shape" transform="translate(6.75 2)"/>
                <path id="prefix__Shape-5" d="M0 0h1.688" class="prefix__cls-3" data-name="Shape" transform="translate(6.75 5)"/>
                <path id="prefix__Shape-6" d="M0 0h2.531" class="prefix__cls-3" data-name="Shape" transform="translate(6.75 9)"/>
                <path id="prefix__Shape-7" d="M0 0h1.688" class="prefix__cls-3" data-name="Shape" transform="translate(6.75 12)"/>
                <path id="prefix__Shape-8" d="M0 10.411L2.287 0l1.645.365 1.637.364-2.118 9.682" class="prefix__cls-3" data-name="Shape" transform="translate(13.745 4.002)"/>
                <path id="prefix__Shape-9" d="M0 2.484L.548 0l3.3.729L3.3 3.213" class="prefix__cls-3" data-name="Shape" transform="translate(16.023 1.518)"/>
                <path id="prefix__Shape-10" d="M5.527 9.6L3.282 0 0 .772 2.05 9.6" class="prefix__cls-3" data-name="Shape" transform="translate(.388 4.816)"/>
                <path id="prefix__Shape-11" d="M0 5.587L.068 0l3.214 4.807" class="prefix__cls-3" data-name="Shape" transform="translate(.388)"/>
            </g>
        </g>
    </g>
</svg>
