<svg xmlns="http://www.w3.org/2000/svg" width="30" height="39" viewBox="0 0 30 39">
    <defs>
        <clipPath id="prefix__clip-path">
            <path d="M0 0H30V39H0z" style="fill:none"/>
        </clipPath>
        <style>
            .prefix__cls-3{fill:none;stroke:#75fed0;stroke-miterlimit:10}
        </style>
    </defs>
    <g id="prefix__Icon_Illustration_Green_Juice" data-name="Icon / Illustration / Green / Juice">
        <g id="prefix__Icon_Illustration_Green_Juice-2" data-name="Icon / Illustration / Green / Juice">
            <g id="prefix__Layer_1">
                <path id="prefix__Shape" d="M0 0h19.714L18 28.826H1.714L0 0z" class="prefix__cls-3" transform="translate(4.286 10.174)"/>
                <path id="prefix__Shape-2" d="M5.649 11.87a2.383 2.383 0 0 0 .351 0 5.968 5.968 0 0 0 6-5.935A5.968 5.968 0 0 0 6 0a5.968 5.968 0 0 0-6 5.935" class="prefix__cls-3" data-name="Shape" transform="translate(18 4.239)"/>
                <path id="prefix__Shape-3" d="M.291 0L0 .8" class="prefix__cls-3" data-name="Shape" transform="translate(24.634 6.918)"/>
                <path id="prefix__Shape-4" d="M0 0l.557.644" class="prefix__cls-3" data-name="Shape" transform="translate(21.549 7.503)"/>
                <path id="prefix__Shape-5" d="M.549.653L0 0" class="prefix__cls-3" data-name="Shape" transform="translate(25.406 12.048)"/>
                <path id="prefix__Shape-6" d="M.84 0L0 .153" class="prefix__cls-3" data-name="Shape" transform="translate(26.289 9.513)"/>
                <path id="prefix__Shape-7" d="M0 2.07s3.754-4.027 9.429-.848 8.571 0 8.571 0" class="prefix__cls-3" data-name="Shape" transform="translate(5.143 23.365)"/>
                <path id="prefix__Shape-8" d="M10.286 22.891L7.714 5.087 0 0" class="prefix__cls-3" data-name="Shape"/>
            </g>
        </g>
    </g>
</svg>
