<svg xmlns="http://www.w3.org/2000/svg" width="45.808" height="45.808" viewBox="0 0 45.808 45.808">
    <defs>
        <clipPath id="prefix__clip-path">
            <path d="M0 0H45.808V45.808H0z" style="fill:none"/>
        </clipPath>
        <style>
            .prefix__cls-3{fill:none;stroke:#75fed0;stroke-miterlimit:10;stroke-width:2px}
        </style>
    </defs>
    <g id="prefix__Icon_Illustration_Green_Telecomunication" data-name="Icon / Illustration / Green / Telecomunication">
        <g id="prefix__Icon_Illustration_Green_Telecomunication-2" data-name="Icon / Illustration / Green / Telecomunication" transform="translate(0 -.192)">
            <g id="prefix__communication_media_tower_broadcast_network_signal" data-name="communication media tower broadcast network signal">
                <g id="prefix__Layer_1">
                    <path id="prefix__Shape" d="M38.925 32.52A23 23 0 0 1 6.4 0z" class="prefix__cls-3" transform="translate(2.335 4.74)"/>
                    <path id="prefix__Shape-2" d="M0 5.65L16.97 0l-5.65 16.97" class="prefix__cls-3" data-name="Shape" transform="translate(19.34 9.69)"/>
                    <path id="prefix__Shape-3" d="M11.31 0L0 11.31" class="prefix__cls-3" data-name="Shape" transform="translate(25 9.69)"/>
                    <circle id="prefix__Oval" cx="1" cy="1" r="1" class="prefix__cls-3" transform="rotate(-45 29.142 -37.28)"/>
                    <path id="prefix__Shape-4" d="M0 1.386a5.41 5.41 0 0 1 7.64 7.64" class="prefix__cls-3" data-name="Shape" transform="translate(32 4.974)"/>
                    <path id="prefix__Shape-5" d="M0 3.3a10.54 10.54 0 1 1 14.9 14.9" class="prefix__cls-3" data-name="Shape" transform="translate(27.61 .192)"/>
                    <path id="prefix__Shape-6" d="M0 0h4" class="prefix__cls-3" data-name="Shape" transform="translate(0 31)"/>
                    <path id="prefix__Shape-7" d="M0 0v3" class="prefix__cls-3" data-name="Shape" transform="translate(17 43)"/>
                </g>
            </g>
        </g>
    </g>
</svg>
