<svg xmlns="http://www.w3.org/2000/svg" width="46" height="46" viewBox="0 0 46 46">
    <defs>
        <clipPath id="prefix__clip-path">
            <path d="M0 0H46V46H0z" style="fill:none"/>
        </clipPath>
        <style>
            .prefix__cls-3{fill:none;stroke:#75fed0;stroke-miterlimit:10;stroke-width:2px}
        </style>
    </defs>
    <g id="prefix__Icon_Illustration_Green_Collaboration" data-name="Icon / Illustration / Green / Collaboration">
        <g id="prefix__Icon_Illustration_Green_Collaboration-2" data-name="Icon / Illustration / Green / Collaboration">
            <g id="prefix__Layer_1">
                <circle id="prefix__Oval" cx="4" cy="4" r="4" class="prefix__cls-3" transform="translate(19)"/>
                <path id="prefix__Shape" d="M16 8A8 8 0 0 0 0 8z" class="prefix__cls-3" transform="translate(15 12)"/>
                <circle id="prefix__Oval-2" cx="4" cy="4" r="4" class="prefix__cls-3" data-name="Oval" transform="translate(4 26)"/>
                <path id="prefix__Shape-2" d="M16 8A8 8 0 0 0 0 8z" class="prefix__cls-3" data-name="Shape" transform="translate(0 38)"/>
                <circle id="prefix__Oval-3" cx="4" cy="4" r="4" class="prefix__cls-3" data-name="Oval" transform="translate(34 26)"/>
                <path id="prefix__Shape-3" d="M16 8A8 8 0 0 0 0 8z" class="prefix__cls-3" data-name="Shape" transform="translate(30 38)"/>
                <path id="prefix__Shape-4" d="M0 0v6" class="prefix__cls-3" data-name="Shape" transform="translate(23 27)"/>
                <path id="prefix__Shape-5" d="M0 2.89L5 0" class="prefix__cls-3" data-name="Shape" transform="translate(18 32.77)"/>
                <path id="prefix__Shape-6" d="M5 2.89L0 0" class="prefix__cls-3" data-name="Shape" transform="translate(23 32.77)"/>
            </g>
        </g>
    </g>
</svg>
