<svg xmlns="http://www.w3.org/2000/svg" width="17" height="14.173" viewBox="0 0 17 14.173">
    <path id="prefix__Twitter" d="M14.315 1.129A3.439 3.439 0 0 0 11.769 0a3.534 3.534 0 0 0-3.486 3.578 3.647 3.647 0 0 0 .09.815 9.817 9.817 0 0 1-7.19-3.74 3.644 3.644 0 0 0-.472 1.8 3.6 3.6 0 0 0 1.552 2.979 3.423 3.423 0 0 1-1.581-.446v.044a3.557 3.557 0 0 0 2.8 3.509 3.323 3.323 0 0 1-.919.126 3.4 3.4 0 0 1-.657-.065 3.5 3.5 0 0 0 3.258 2.484 6.885 6.885 0 0 1-4.332 1.532A6.986 6.986 0 0 1 0 12.567a9.705 9.705 0 0 0 5.347 1.606c6.416 0 9.923-5.451 9.923-10.18 0-.156 0-.311-.009-.464A7.157 7.157 0 0 0 17 1.678a6.829 6.829 0 0 1-2 .563A3.571 3.571 0 0 0 16.531.262a6.855 6.855 0 0 1-2.216.867z" style="fill:#61687a"/>
</svg>
